<svg width="48" height="48" viewBox="0 0 48 48" fill="none" xmlns="http://www.w3.org/2000/svg">
<path d="M38.49 6H17.084C15.6365 6 14.463 7.17346 14.463 8.621V25.586C14.463 27.0335 15.6365 28.207 17.084 28.207H38.49C39.9376 28.207 41.111 27.0335 41.111 25.586V8.621C41.111 7.17346 39.9376 6 38.49 6Z" fill="white" stroke="#29274C" stroke-linecap="round" stroke-linejoin="round"/>
<path d="M30.916 13.575H9.51C9.16572 13.5749 8.82479 13.6426 8.50668 13.7742C8.18857 13.9059 7.89952 14.0989 7.65603 14.3423C7.41254 14.5857 7.21939 14.8747 7.08761 15.1928C6.95583 15.5108 6.888 15.8517 6.888 16.196V40.949C6.88762 41.1566 6.94888 41.3596 7.06401 41.5322C7.17914 41.7049 7.34296 41.8396 7.53469 41.919C7.72642 41.9985 7.93744 42.0193 8.14098 41.9787C8.34452 41.9381 8.53143 41.838 8.678 41.691L14.588 35.781H30.916C31.6108 35.7807 32.277 35.5046 32.7683 35.0133C33.2596 34.5221 33.5357 33.8558 33.536 33.161V16.196C33.536 15.5011 33.26 14.8345 32.7687 14.343C32.2774 13.8515 31.611 13.5753 30.916 13.575V13.575Z" fill="#7E52A0" stroke="#29274C" stroke-linecap="round" stroke-linejoin="round"/>
</svg>
